<?xml version="1.0" standalone="no"?>
<!DOCTYPE svg PUBLIC "-//W3C//DTD SVG 20010904//EN"
 "http://www.w3.org/TR/2001/REC-SVG-20010904/DTD/svg10.dtd">
<svg version="1.0" xmlns="http://www.w3.org/2000/svg"
 width="768.000000pt" height="768.000000pt" viewBox="0 0 768.000000 768.000000"
 preserveAspectRatio="xMidYMid meet">

<g transform="translate(0.000000,768.000000) scale(0.100000,-0.100000)"
fill="#000000" stroke="none">
<path d="M5699 5937 c-19 -7 -46 -21 -60 -30 -13 -9 -31 -17 -40 -17 -9 0 -47
-20 -85 -45 -38 -25 -93 -57 -122 -71 -50 -24 -103 -58 -257 -167 -33 -23 -80
-55 -105 -70 -25 -16 -70 -46 -100 -67 -30 -22 -93 -65 -140 -97 -92 -61 -139
-97 -204 -154 -66 -59 -119 -103 -156 -130 -19 -15 -81 -71 -138 -125 -56 -55
-126 -119 -154 -144 -28 -25 -81 -74 -117 -109 -36 -35 -82 -76 -101 -91 l-35
-28 -40 28 c-22 16 -78 52 -125 81 -47 28 -93 59 -103 68 -11 9 -58 41 -107
71 -85 54 -139 90 -250 169 -30 22 -93 63 -140 92 -47 28 -96 62 -110 74 -23
21 -236 152 -305 187 -142 74 -212 112 -239 132 -17 13 -80 47 -139 76 -60 29
-127 68 -149 87 -69 57 -96 68 -178 68 -64 0 -82 -4 -123 -28 -55 -33 -102
-93 -118 -151 -26 -95 15 -212 92 -264 22 -15 58 -42 81 -60 22 -18 92 -58
155 -89 64 -31 136 -70 162 -88 25 -17 87 -52 136 -76 107 -54 340 -193 373
-223 13 -11 63 -46 111 -76 87 -54 141 -91 251 -169 30 -22 97 -65 148 -96 50
-31 95 -61 98 -66 3 -5 36 -27 74 -49 79 -46 90 -59 64 -73 -10 -6 -50 -42
-88 -80 -39 -38 -86 -81 -104 -95 -18 -14 -47 -45 -63 -69 -17 -24 -54 -67
-83 -96 -29 -28 -62 -65 -72 -82 -20 -32 -85 -119 -146 -194 -21 -25 -60 -80
-89 -121 -28 -41 -63 -88 -78 -103 -14 -16 -53 -73 -86 -127 -33 -54 -89 -145
-124 -202 -59 -95 -87 -142 -146 -253 -12 -22 -36 -62 -53 -89 -18 -28 -32
-55 -32 -60 0 -6 -23 -58 -51 -116 -28 -58 -62 -129 -75 -157 -14 -29 -36 -79
-51 -110 -14 -32 -36 -79 -49 -104 -13 -26 -24 -53 -24 -61 0 -7 -11 -34 -24
-59 -13 -25 -28 -62 -31 -82 -4 -21 -23 -57 -42 -79 -57 -69 -68 -96 -68 -178
0 -64 4 -82 28 -123 52 -88 143 -134 245 -124 92 10 143 51 250 202 13 18 29
55 37 81 19 68 42 131 67 184 12 25 32 69 45 97 61 137 94 207 202 433 14 30
36 69 48 85 12 17 29 47 38 66 8 18 55 99 105 179 49 80 108 176 131 214 23
38 56 85 73 105 18 20 52 65 76 101 23 36 57 81 74 101 49 57 89 110 113 148
37 59 278 310 434 452 l40 37 97 -97 c53 -53 117 -125 142 -160 25 -35 59 -82
76 -105 44 -59 120 -187 139 -232 9 -22 28 -55 44 -74 40 -50 131 -204 131
-222 0 -8 12 -34 28 -59 27 -45 58 -107 107 -214 13 -30 36 -80 50 -110 13
-30 36 -79 49 -108 32 -69 46 -104 62 -152 7 -22 25 -71 39 -110 35 -92 54
-149 70 -210 7 -27 24 -79 37 -115 13 -36 30 -99 37 -140 7 -41 17 -95 21
-120 5 -25 12 -66 15 -92 8 -63 57 -135 119 -173 44 -27 58 -30 126 -30 68 0
82 3 126 30 60 38 110 109 120 172 4 26 2 75 -5 110 -6 35 -16 93 -22 131 -6
37 -15 85 -20 107 -29 117 -39 155 -59 210 -13 33 -28 83 -35 110 -8 28 -25
82 -40 120 -38 100 -64 174 -80 222 -7 23 -22 59 -33 80 -11 21 -30 63 -44 93
-118 263 -146 320 -204 428 -19 35 -34 69 -34 75 0 14 -96 174 -125 209 -12
15 -33 48 -45 75 -28 59 -108 189 -161 263 -21 30 -51 72 -64 93 -54 80 -99
132 -200 233 l-104 103 79 78 c44 43 104 98 133 123 28 25 70 63 92 86 22 23
81 76 130 118 50 42 110 94 135 115 98 85 118 100 194 152 43 30 98 68 122 84
23 17 73 51 111 76 112 74 145 97 218 149 39 28 95 62 125 76 30 15 69 36 85
48 46 34 117 72 146 79 42 10 106 63 134 111 69 118 28 272 -90 342 -55 32
-150 42 -206 21z"/>
</g>
</svg>
