<?xml version="1.0" standalone="no"?>
<!DOCTYPE svg PUBLIC "-//W3C//DTD SVG 20010904//EN"
 "http://www.w3.org/TR/2001/REC-SVG-20010904/DTD/svg10.dtd">
<svg version="1.0" xmlns="http://www.w3.org/2000/svg"
 width="768.000000pt" height="768.000000pt" viewBox="0 0 768.000000 768.000000"
 preserveAspectRatio="xMidYMid meet">

<g transform="translate(0.000000,768.000000) scale(0.100000,-0.100000)"
fill="#000000" stroke="none">
<path d="M3570 6342 c-119 -6 -350 -35 -420 -52 -159 -37 -340 -109 -429 -169
-14 -10 -55 -37 -91 -61 -297 -200 -641 -521 -782 -729 -54 -81 -173 -321
-206 -416 -109 -319 -142 -528 -142 -897 0 -293 27 -536 85 -758 39 -152 96
-320 140 -415 8 -16 26 -57 40 -90 79 -184 139 -271 280 -410 118 -116 231
-203 435 -337 241 -157 313 -196 377 -205 132 -18 243 114 209 248 -17 64 -53
102 -139 145 -74 38 -355 220 -452 294 -33 25 -106 90 -161 145 -94 93 -106
109 -157 215 -183 378 -252 667 -263 1095 -11 414 47 711 200 1016 35 70 83
153 107 185 79 107 303 327 440 429 14 11 70 53 123 94 235 177 388 237 686
272 126 14 375 6 474 -15 88 -20 255 -74 371 -121 141 -57 223 -105 420 -243
219 -155 437 -454 666 -912 267 -537 424 -1009 490 -1472 21 -147 1 -372 -45
-528 -49 -162 -66 -207 -116 -305 -51 -98 -89 -163 -184 -306 -99 -150 -319
-300 -586 -402 -104 -40 -305 -99 -415 -123 -126 -28 -395 -53 -680 -65 -257
-11 -286 -11 -370 6 -77 15 -98 16 -131 5 -121 -39 -177 -165 -123 -278 31
-63 81 -95 184 -117 78 -16 117 -17 364 -11 408 10 542 22 791 67 126 23 224
49 396 105 215 70 331 122 489 219 230 140 324 238 520 545 36 55 123 218 130
243 4 12 13 31 20 43 7 11 18 36 23 55 6 19 18 53 26 76 55 150 102 387 110
548 5 103 -6 269 -25 365 -5 30 -15 80 -20 110 -22 115 -73 333 -95 400 -75
232 -93 288 -102 310 -6 14 -36 90 -68 170 -83 212 -140 338 -260 575 -104
205 -196 359 -334 560 -56 81 -209 256 -285 326 -100 91 -350 261 -475 324
-41 20 -83 42 -94 47 -19 10 -156 61 -276 103 -206 73 -459 109 -670 97z"/>
</g>
</svg>
