<?xml version="1.0" standalone="no"?>
<!DOCTYPE svg PUBLIC "-//W3C//DTD SVG 20010904//EN"
 "http://www.w3.org/TR/2001/REC-SVG-20010904/DTD/svg10.dtd">
<svg version="1.0" xmlns="http://www.w3.org/2000/svg"
 width="512.000000pt" height="512.000000pt" viewBox="0 0 512.000000 512.000000"
 preserveAspectRatio="xMidYMid meet">

<g transform="translate(0.000000,512.000000) scale(0.100000,-0.100000)"
fill="#000000" stroke="none">
<path d="M626 4949 c-62 -15 -153 -68 -197 -116 -22 -24 -55 -74 -72 -111
l-32 -67 0 -2096 0 -2095 37 -76 c45 -91 103 -147 196 -191 l67 -32 1555 -3
c1616 -3 1648 -2 1800 39 86 24 256 102 326 150 351 241 540 663 483 1075 -49
351 -261 663 -563 830 l-66 36 0 831 0 832 -503 502 -502 503 -1245 -1 c-710
-1 -1262 -5 -1284 -10z m2416 -477 l3 -328 37 -76 c45 -91 103 -147 196 -191
l67 -32 328 -3 327 -3 0 -744 0 -744 -27 9 c-16 5 -68 16 -117 25 -398 68
-821 -102 -1068 -429 -220 -292 -285 -676 -173 -1021 76 -231 253 -465 444
-586 l45 -29 -1208 0 c-920 0 -1219 3 -1250 12 -55 16 -138 99 -154 154 -18
60 -18 4088 0 4148 15 51 99 137 148 153 25 8 386 11 1217 12 l1182 1 3 -328z
m606 -470 c-162 -2 -247 1 -278 10 -59 16 -141 96 -158 154 -8 27 -12 122 -12
280 l0 239 340 -340 340 -340 -232 -3z m263 -1791 c182 -47 320 -128 454 -265
127 -130 207 -274 252 -452 26 -103 23 -343 -5 -445 -97 -357 -362 -617 -718
-706 -95 -24 -333 -24 -428 0 -356 89 -626 354 -717 706 -11 42 -23 126 -26
186 -24 479 311 899 790 991 100 19 299 12 398 -15z"/>
<path d="M825 3975 c-16 -15 -25 -36 -25 -55 0 -19 9 -40 25 -55 l24 -25 511
0 511 0 24 25 c16 15 25 36 25 55 0 19 -9 40 -25 55 l-24 25 -511 0 -511 0
-24 -25z"/>
<path d="M825 3495 c-16 -15 -25 -36 -25 -55 0 -19 9 -40 25 -55 l24 -25 271
0 271 0 24 25 c16 15 25 36 25 55 0 19 -9 40 -25 55 l-24 25 -271 0 -271 0
-24 -25z"/>
<path d="M1625 3495 c-16 -15 -25 -36 -25 -55 0 -19 9 -40 25 -55 l24 -25 991
0 991 0 24 25 c16 15 25 36 25 55 0 19 -9 40 -25 55 l-24 25 -991 0 -991 0
-24 -25z"/>
<path d="M825 3015 c-16 -15 -25 -36 -25 -55 0 -19 9 -40 25 -55 l24 -25 831
0 831 0 24 25 c33 32 33 78 0 110 l-24 25 -831 0 -831 0 -24 -25z"/>
<path d="M2745 3015 c-16 -15 -25 -36 -25 -55 0 -19 9 -40 25 -55 l24 -25 431
0 431 0 24 25 c16 15 25 36 25 55 0 19 -9 40 -25 55 l-24 25 -431 0 -431 0
-24 -25z"/>
<path d="M825 2535 c-16 -15 -25 -36 -25 -55 0 -19 9 -40 25 -55 l24 -25 511
0 511 0 24 25 c16 15 25 36 25 55 0 19 -9 40 -25 55 l-24 25 -511 0 -511 0
-24 -25z"/>
<path d="M2105 2535 c-16 -15 -25 -36 -25 -55 0 -19 9 -40 25 -55 l24 -25 351
0 351 0 24 25 c16 15 25 36 25 55 0 19 -9 40 -25 55 l-24 25 -351 0 -351 0
-24 -25z"/>
<path d="M825 2055 c-16 -15 -25 -36 -25 -55 0 -19 9 -40 25 -55 l24 -25 751
0 751 0 24 25 c33 32 33 78 0 110 l-24 25 -751 0 -751 0 -24 -25z"/>
<path d="M825 1575 c-16 -15 -25 -36 -25 -55 0 -19 9 -40 25 -55 l24 -25 271
0 271 0 24 25 c16 15 25 36 25 55 0 19 -9 40 -25 55 l-24 25 -271 0 -271 0
-24 -25z"/>
<path d="M1625 1575 c-16 -15 -25 -36 -25 -55 0 -19 9 -40 25 -55 l24 -25 271
0 271 0 24 25 c16 15 25 36 25 55 0 19 -9 40 -25 55 l-24 25 -271 0 -271 0
-24 -25z"/>
<path d="M825 1095 c-16 -15 -25 -36 -25 -55 0 -19 9 -40 25 -55 l24 -25 351
0 351 0 24 25 c16 15 25 36 25 55 0 19 -9 40 -25 55 l-24 25 -351 0 -351 0
-24 -25z"/>
<path d="M1785 1095 c-16 -15 -25 -36 -25 -55 0 -19 9 -40 25 -55 24 -25 26
-25 215 -25 189 0 191 0 215 25 16 15 25 36 25 55 0 19 -9 40 -25 55 -24 25
-26 25 -215 25 -189 0 -191 0 -215 -25z"/>
<path d="M3225 1815 c-50 -49 -43 -61 186 -337 116 -139 218 -259 227 -265 12
-10 93 -13 324 -13 l309 0 24 25 c16 15 25 36 25 55 0 19 -9 40 -25 55 l-24
25 -278 0 -278 0 -175 212 c-96 116 -187 224 -202 239 -34 37 -79 39 -113 4z"/>
</g>
</svg>
